<svg width="192" height="192" viewBox="0 0 192 192" fill="none" xmlns="http://www.w3.org/2000/svg">
<path d="M75.3135 117.209C70.7081 117.398 65.7189 115.83 63.8 115.022L48.8186 124.177C48.0436 124.651 47.0895 123.929 47.3341 123.055L51.6693 107.549C42.1021 101.182 36 91.526 36 80.7153C36 61.5427 55.1945 46 78.8723 46C101.824 46 120.563 60.6041 121.691 78.9623C121.205 78.9464 120.717 78.9384 120.227 78.9384C100.469 78.9384 84.4527 91.9827 84.4527 108.073C84.4527 110.468 84.8073 112.795 85.4767 115.022C89.3027 127.758 103.409 137.209 120.227 137.209C123.823 137.209 127.295 136.776 130.569 135.972L145.119 144.676C145.903 145.144 146.853 144.404 146.59 143.529L142.737 130.718C150.828 125.377 156 117.217 156 108.073C156 96.0833 147.107 85.7847 134.399 81.3147" stroke="black" stroke-width="8" stroke-linecap="round" stroke-linejoin="round"/>
</svg>
